<svg width="465" height="86" viewBox="0 0 465 86" fill="none" xmlns="http://www.w3.org/2000/svg">
<path d="M405.587 1H11C5.47715 1 1 5.47715 1 11V75C1 80.5228 5.47716 85 11 85H454C459.523 85 464 80.5228 464 75V44.4711C464 41.1874 462.388 38.113 459.687 36.2456L411.274 2.77446C409.603 1.61896 407.619 1 405.587 1Z" fill="white" stroke="black"/>
<path d="M389.5 1.5V84.5" stroke="#0D0C0C"/>
<path d="M177.532 42.0938C177.472 41.8864 177.388 41.7031 177.28 41.544C177.172 41.3821 177.04 41.2457 176.884 41.1349C176.731 41.0213 176.555 40.9347 176.356 40.875C176.16 40.8153 175.942 40.7855 175.704 40.7855C175.258 40.7855 174.866 40.8963 174.528 41.1179C174.192 41.3395 173.931 41.6619 173.743 42.0852C173.556 42.5057 173.462 43.0199 173.462 43.6278C173.462 44.2358 173.555 44.7528 173.739 45.179C173.924 45.6051 174.185 45.9304 174.523 46.1548C174.861 46.3764 175.26 46.4872 175.721 46.4872C176.138 46.4872 176.495 46.4134 176.79 46.2656C177.089 46.1151 177.316 45.9034 177.472 45.6307C177.631 45.358 177.711 45.0355 177.711 44.6634L178.086 44.7188H175.836V43.3295H179.488V44.429C179.488 45.196 179.326 45.8551 179.002 46.4062C178.678 46.9545 178.232 47.3778 177.664 47.6761C177.096 47.9716 176.445 48.1193 175.712 48.1193C174.894 48.1193 174.175 47.9389 173.556 47.5781C172.937 47.2145 172.454 46.6989 172.107 46.0312C171.763 45.3608 171.591 44.5653 171.591 43.6449C171.591 42.9375 171.694 42.3068 171.898 41.7528C172.106 41.196 172.395 40.7244 172.768 40.3381C173.14 39.9517 173.573 39.6577 174.067 39.456C174.562 39.2543 175.097 39.1534 175.674 39.1534C176.168 39.1534 176.628 39.2259 177.055 39.3707C177.481 39.5128 177.858 39.7145 178.188 39.9759C178.52 40.2372 178.792 40.5483 179.002 40.9091C179.212 41.267 179.347 41.6619 179.407 42.0938H177.532ZM180.874 48V39.2727H186.754V40.794H182.719V42.8736H186.452V44.3949H182.719V46.4787H186.771V48H180.874ZM187.889 40.794V39.2727H195.057V40.794H192.385V48H190.561V40.794H187.889ZM203.749 41.7827C203.715 41.4389 203.568 41.1719 203.31 40.9815C203.051 40.7912 202.7 40.696 202.257 40.696C201.956 40.696 201.702 40.7386 201.494 40.8239C201.287 40.9062 201.128 41.0213 201.017 41.169C200.909 41.3168 200.855 41.4844 200.855 41.6719C200.85 41.8281 200.882 41.9645 200.953 42.081C201.027 42.1974 201.128 42.2983 201.256 42.3835C201.384 42.4659 201.531 42.5384 201.699 42.6009C201.867 42.6605 202.046 42.7116 202.236 42.7543L203.02 42.9418C203.401 43.027 203.75 43.1406 204.068 43.2827C204.387 43.4247 204.662 43.5994 204.895 43.8068C205.128 44.0142 205.308 44.2585 205.436 44.5398C205.567 44.821 205.634 45.1435 205.637 45.5071C205.634 46.0412 205.497 46.5043 205.227 46.8963C204.96 47.2855 204.574 47.5881 204.068 47.804C203.566 48.017 202.959 48.1236 202.249 48.1236C201.544 48.1236 200.931 48.0156 200.408 47.7997C199.888 47.5838 199.482 47.2642 199.189 46.8409C198.899 46.4148 198.747 45.8878 198.733 45.2599H200.519C200.539 45.5526 200.622 45.7969 200.77 45.9929C200.921 46.1861 201.121 46.3324 201.371 46.4318C201.624 46.5284 201.909 46.5767 202.227 46.5767C202.54 46.5767 202.811 46.5312 203.041 46.4403C203.274 46.3494 203.455 46.223 203.583 46.0611C203.71 45.8991 203.774 45.7131 203.774 45.5028C203.774 45.3068 203.716 45.142 203.6 45.0085C203.486 44.875 203.318 44.7614 203.097 44.6676C202.878 44.5739 202.61 44.4886 202.291 44.4119L201.341 44.1733C200.605 43.9943 200.024 43.7145 199.598 43.3338C199.172 42.9531 198.96 42.4403 198.963 41.7955C198.96 41.267 199.101 40.8054 199.385 40.4105C199.672 40.0156 200.066 39.7074 200.566 39.4858C201.066 39.2642 201.634 39.1534 202.27 39.1534C202.918 39.1534 203.483 39.2642 203.966 39.4858C204.452 39.7074 204.83 40.0156 205.1 40.4105C205.369 40.8054 205.509 41.2628 205.517 41.7827H203.749ZM206.545 40.794V39.2727H213.713V40.794H211.041V48H209.217V40.794H206.545ZM215.331 48H213.354L216.367 39.2727H218.744L221.753 48H219.776L217.59 41.267H217.521L215.331 48ZM215.208 44.5696H219.878V46.0099H215.208V44.5696ZM222.803 48V39.2727H226.247C226.906 39.2727 227.468 39.3906 227.934 39.6264C228.403 39.8594 228.759 40.1903 229.004 40.6193C229.251 41.0455 229.374 41.5469 229.374 42.1236C229.374 42.7031 229.249 43.2017 228.999 43.6193C228.749 44.0341 228.387 44.3523 227.913 44.5739C227.441 44.7955 226.87 44.9062 226.2 44.9062H223.894V43.4233H225.901C226.254 43.4233 226.546 43.375 226.779 43.2784C227.012 43.1818 227.186 43.0369 227.299 42.8438C227.416 42.6506 227.474 42.4105 227.474 42.1236C227.474 41.8338 227.416 41.5895 227.299 41.3906C227.186 41.1918 227.011 41.0412 226.775 40.9389C226.542 40.8338 226.248 40.7812 225.893 40.7812H224.649V48H222.803ZM227.517 44.0284L229.686 48H227.649L225.526 44.0284H227.517ZM230.346 40.794V39.2727H237.514V40.794H234.842V48H233.018V40.794H230.346ZM238.694 48V39.2727H244.575V40.794H240.539V42.8736H244.272V44.3949H240.539V46.4787H244.592V48H238.694ZM249.135 48H246.042V39.2727H249.161C250.039 39.2727 250.795 39.4474 251.428 39.7969C252.062 40.1435 252.549 40.642 252.89 41.2926C253.233 41.9432 253.405 42.7216 253.405 43.6278C253.405 44.5369 253.233 45.3182 252.89 45.9716C252.549 46.625 252.059 47.1264 251.42 47.4759C250.783 47.8253 250.022 48 249.135 48ZM247.887 46.419H249.059C249.604 46.419 250.063 46.3224 250.435 46.1293C250.81 45.9332 251.091 45.6307 251.279 45.2216C251.469 44.8097 251.564 44.2784 251.564 43.6278C251.564 42.983 251.469 42.456 251.279 42.0469C251.091 41.6378 250.812 41.3366 250.439 41.1435C250.067 40.9503 249.608 40.8537 249.063 40.8537H247.887V46.419Z" fill="black"/>
</svg>
